<svg xmlns="http://www.w3.org/2000/svg" xmlns:xlink="http://www.w3.org/1999/xlink" width="500" zoomAndPan="magnify" viewBox="0 0 375 374.999991" height="500" preserveAspectRatio="xMidYMid meet" version="1.0"><defs><g/></defs><g fill="#000000" fill-opacity="1"><g transform="translate(110.624997, 193.499984)"><g><path d="M 98.640625 -18.140625 C 100.367188 -13.722656 101.90625 -10.289062 103.25 -7.84375 C 104.59375 -5.394531 106.007812 -3.644531 107.5 -2.59375 C 108.988281 -1.539062 110.785156 -0.867188 112.890625 -0.578125 L 112.890625 0 L 72.4375 0 L 72.4375 -0.578125 C 75.789062 -0.867188 78.570312 -1.515625 80.78125 -2.515625 C 82.988281 -3.523438 84.378906 -5.179688 84.953125 -7.484375 C 85.535156 -9.785156 84.960938 -13.050781 83.234375 -17.28125 L 80.359375 -24.484375 L 24.046875 -24.484375 L 20.875 -17.28125 C 19.050781 -13.15625 18.378906 -9.988281 18.859375 -7.78125 C 19.335938 -5.570312 20.535156 -3.960938 22.453125 -2.953125 C 24.378906 -1.941406 26.6875 -1.148438 29.375 -0.578125 L 29.375 0 L 2.875 0 L 2.875 -0.578125 C 4.894531 -1.148438 6.695312 -1.960938 8.28125 -3.015625 C 9.863281 -4.078125 11.398438 -5.710938 12.890625 -7.921875 C 14.378906 -10.128906 15.988281 -13.296875 17.71875 -17.421875 L 49.6875 -91.15625 L 49.390625 -94.3125 L 51.703125 -95.90625 L 65.09375 -104.6875 C 65.09375 -104.113281 65.234375 -103.273438 65.515625 -102.171875 C 65.804688 -101.066406 66.71875 -98.640625 68.25 -94.890625 Z M 25.0625 -27.078125 L 79.34375 -27.078125 L 53.28125 -92.15625 Z M 25.0625 -27.078125 "/></g></g></g><g fill="#000000" fill-opacity="1"><g transform="translate(144.374995, 235.499985)"><g><path d="M 113.609375 -43.484375 C 110.640625 -43.097656 108.070312 -42.378906 105.90625 -41.328125 C 103.75 -40.273438 102.671875 -38.453125 102.671875 -35.859375 L 102.671875 -8.203125 C 102.671875 -5.609375 103.75 -3.804688 105.90625 -2.796875 C 108.070312 -1.796875 110.640625 -1.101562 113.609375 -0.71875 L 113.609375 0 L 86.546875 0 L 87.984375 -9.078125 C 84.816406 -5.710938 80.804688 -3.019531 75.953125 -1 C 71.109375 1.007812 65.566406 2.015625 59.328125 2.015625 C 52.410156 2.015625 45.804688 0.742188 39.515625 -1.796875 C 33.234375 -4.335938 27.597656 -7.9375 22.609375 -12.59375 C 17.617188 -17.25 13.679688 -22.769531 10.796875 -29.15625 C 7.921875 -35.539062 6.484375 -42.625 6.484375 -50.40625 C 6.484375 -58.75 8.113281 -66.160156 11.375 -72.640625 C 14.632812 -79.128906 19.023438 -84.601562 24.546875 -89.0625 C 30.066406 -93.53125 36.304688 -96.9375 43.265625 -99.28125 C 50.234375 -101.632812 57.410156 -102.8125 64.796875 -102.8125 C 74.109375 -102.8125 82.003906 -101.300781 88.484375 -98.28125 C 94.960938 -95.257812 99.835938 -91.734375 103.109375 -87.703125 L 84.8125 -62.203125 L 84.390625 -62.359375 C 86.304688 -67.148438 87.070312 -71.773438 86.6875 -76.234375 C 86.300781 -80.703125 84.882812 -84.710938 82.4375 -88.265625 C 79.988281 -91.816406 76.675781 -94.625 72.5 -96.6875 C 68.320312 -98.757812 63.453125 -99.796875 57.890625 -99.796875 C 51.453125 -99.796875 45.566406 -98.234375 40.234375 -95.109375 C 34.910156 -91.992188 30.640625 -87.410156 27.421875 -81.359375 C 24.210938 -75.304688 22.609375 -67.769531 22.609375 -58.75 C 22.609375 -51.257812 23.78125 -44.226562 26.125 -37.65625 C 28.476562 -31.082031 31.789062 -25.296875 36.0625 -20.296875 C 40.34375 -15.304688 45.335938 -11.394531 51.046875 -8.5625 C 56.753906 -5.726562 62.972656 -4.3125 69.703125 -4.3125 C 74.109375 -4.3125 77.800781 -4.9375 80.78125 -6.1875 C 83.757812 -7.4375 86.160156 -9.257812 87.984375 -11.65625 L 87.984375 -35.859375 C 87.984375 -37.585938 87.210938 -38.882812 85.671875 -39.75 C 84.140625 -40.613281 81.257812 -41.234375 77.03125 -41.609375 C 72.8125 -41.992188 66.570312 -42.285156 58.3125 -42.484375 L 61.203125 -44.203125 L 113.609375 -44.203125 Z M 113.609375 -43.484375 "/></g></g></g></svg>